<?xml version="1.0" encoding="iso-8859-1"?>
<!-- Generator: Adobe Illustrator 19.0.0, SVG Export Plug-In . SVG Version: 6.00 Build 0)  -->
<svg version="1.1" id="Layer_1" xmlns="http://www.w3.org/2000/svg" xmlns:xlink="http://www.w3.org/1999/xlink" x="0px" y="0px"
	 viewBox="0 0 511.999 511.999" style="enable-background:new 0 0 511.999 511.999;" xml:space="preserve">
<g>
	<g>
		<circle cx="80.161" cy="147.209" r="17.177"/>
	</g>
</g>
<g>
	<g>
		<circle cx="137.418" cy="147.209" r="17.177"/>
	</g>
</g>
<g>
	<g>
		<circle cx="194.676" cy="147.209" r="17.177"/>
	</g>
</g>
<g>
	<g>
		<rect x="85.886" y="255.998" width="114.515" height="34.355"/>
	</g>
</g>
<g>
	<g>
		<rect x="85.886" y="324.707" width="114.515" height="34.355"/>
	</g>
</g>
<g>
	<g>
		<path d="M494.07,182.673c-12.292-13.095-28.951-20.463-46.908-20.747c-0.185-0.002-0.369,0.007-0.553,0.005v-83.43H0v354.997
			h446.609V320.195l37.362-37.362l8.653-8.653C517.887,248.917,518.523,208.722,494.07,182.673z M34.355,112.855h377.9v58.429
			c-4.536,2.738-8.779,6.041-12.632,9.895l-0.385,0.385H34.355V112.855z M240.482,399.143H34.355V215.919h330.528l-40.08,40.08
			h-78.594v34.355h44.359l-50.084,50.149V399.143z M412.255,399.143h-44.593l44.593-44.594V399.143z M367.75,350.47l-48.674,48.674
			h-44.24v-44.423l118.302-118.457l43.004,45.813L367.75,350.47z M468.33,249.889l-7.882,7.883l-43.012-45.822l6.478-6.478
			c6.065-6.065,14.109-9.293,22.705-9.196c8.576,0.136,16.533,3.654,22.403,9.909C480.7,218.626,480.396,237.822,468.33,249.889z"/>
	</g>
</g>
<g>
</g>
<g>
</g>
<g>
</g>
<g>
</g>
<g>
</g>
<g>
</g>
<g>
</g>
<g>
</g>
<g>
</g>
<g>
</g>
<g>
</g>
<g>
</g>
<g>
</g>
<g>
</g>
<g>
</g>
</svg>
